<?xml version="1.0" encoding="utf-8"?>
<!-- Generator: Adobe Illustrator 18.0.0, SVG Export Plug-In . SVG Version: 6.00 Build 0)  -->
<!DOCTYPE svg PUBLIC "-//W3C//DTD SVG 1.1//EN" "http://www.w3.org/Graphics/SVG/1.1/DTD/svg11.dtd">
<svg version="1.1" id="Layer_1" xmlns="http://www.w3.org/2000/svg" xmlns:xlink="http://www.w3.org/1999/xlink" x="0px" y="0px"
	 viewBox="0 0 150 150" enable-background="new 0 0 150 150" xml:space="preserve">
<g>
	<g>
		<g>
			<g>
				<g>
					<defs>
						<rect id="SVGID_1_" x="43.4" y="43.8" width="62.3" height="62.3"/>
					</defs>
					<clipPath id="SVGID_2_">
						<use xlink:href="#SVGID_1_"  overflow="visible"/>
					</clipPath>
					<rect x="43.4" y="43.8" clip-path="url(#SVGID_2_)" fill="#D8D8D8" width="62.3" height="62.3"/>
				</g>
				<g>
					<g>
						<defs>
							<rect id="SVGID_3_" x="43.4" y="43.8" width="62.3" height="62.3"/>
						</defs>
						<clipPath id="SVGID_4_">
							<use xlink:href="#SVGID_3_"  overflow="visible"/>
						</clipPath>
						<path clip-path="url(#SVGID_4_)" fill="#535353" d="M109.8,110.3H39.3V39.7h70.5V110.3z M47.5,102h54.1V48H47.5V102z"/>
					</g>
				</g>
				<g>
					<g>
						<defs>
							<path id="SVGID_5_" d="M34.2,47.5c0-7.1,5.7-12.8,12.8-12.8h55c7.1,0,12.8,5.7,12.8,12.8v55c0,7.1-5.7,12.8-12.8,12.8h-55
								c-7.1,0-12.8-5.7-12.8-12.8V47.5z"/>
						</defs>
						<clipPath id="SVGID_6_">
							<use xlink:href="#SVGID_5_"  overflow="visible"/>
						</clipPath>
						<path clip-path="url(#SVGID_6_)" fill="#535353" d="M102,119.4h-55c-9.3,0-16.9-7.6-16.9-16.9v-55c0-9.3,7.6-16.9,16.9-16.9
							h55c9.3,0,16.9,7.6,16.9,16.9v55C119,111.8,111.4,119.4,102,119.4z M47.1,38.8c-4.9,0-8.7,3.8-8.7,8.7v55
							c0,4.9,3.8,8.7,8.7,8.7h55c4.9,0,8.7-3.8,8.7-8.7v-55c0-4.9-3.8-8.7-8.7-8.7H47.1z"/>
					</g>
				</g>
				<rect x="111.9" y="43.6" fill="#535353" width="12.4" height="4.1"/>
				<rect x="25.8" y="43.6" fill="#535353" width="12.4" height="4.1"/>
				<rect x="111.9" y="58.3" fill="#535353" width="12.4" height="4.1"/>
				<rect x="25.8" y="58.3" fill="#535353" width="12.4" height="4.1"/>
				<rect x="111.9" y="102.3" fill="#535353" width="12.4" height="4.1"/>
				<rect x="25.8" y="102.3" fill="#535353" width="12.4" height="4.1"/>
				<rect x="111.9" y="87.6" fill="#535353" width="12.4" height="4.1"/>
				<rect x="25.8" y="87.6" fill="#535353" width="12.4" height="4.1"/>
				<rect x="111.9" y="72.9" fill="#535353" width="12.4" height="4.1"/>
				<rect x="25.8" y="72.9" fill="#535353" width="12.4" height="4.1"/>
			</g>
		</g>
	</g>
	<g>
		<g>
			<g>
				<g>
					<path fill="#535353" d="M54.5,74.8l2.3,2.3c9.7,9.7,25.4,9.7,35.1,0l2.3-2.3l-2.3-2.3c-9.7-9.7-25.4-9.7-35.1,0L54.5,74.8
						L54.5,74.8z M74.4,86.1c-6.8,0-13.6-2.6-18.7-7.8l-2.9-2.9c-0.3-0.3-0.3-0.9,0-1.2l2.9-2.9c10.3-10.3,27.1-10.3,37.5,0l2.9,2.9
						c0.3,0.3,0.3,0.9,0,1.2l-2.9,2.9C88,83.5,81.2,86.1,74.4,86.1L74.4,86.1z"/>
					<path fill="#535353" d="M74.4,87.2c-7.4,0-14.3-2.9-19.5-8.1L52,76.2c-0.7-0.7-0.7-1.9,0-2.7l3-3c5.2-5.2,12.1-8.1,19.5-8.1
						c7.4,0,14.3,2.9,19.5,8.1l2.9,2.9c0.7,0.7,0.7,1.9,0,2.7l-3,3C88.7,84.3,81.7,87.2,74.4,87.2z M56,74.8l1.6,1.6
						c4.5,4.5,10.5,6.9,16.8,6.9c6.4,0,12.3-2.5,16.8-6.9l1.6-1.6l-1.6-1.6c-4.5-4.5-10.5-7-16.8-7c-6.4,0-12.3,2.5-16.8,7L56,74.8z
						"/>
				</g>
				<g>
					<path fill="#535353" d="M74.4,68.3c-3.6,0-6.5,2.9-6.5,6.5c0,3.6,2.9,6.5,6.5,6.5c3.6,0,6.5-2.9,6.5-6.5
						C80.9,71.2,78,68.3,74.4,68.3z M74.4,83c-4.5,0-8.2-3.7-8.2-8.2c0-4.5,3.7-8.2,8.2-8.2c4.5,0,8.2,3.7,8.2,8.2
						C82.6,79.3,78.9,83,74.4,83z"/>
					<path fill="#535353" d="M74.4,84c-5.1,0-9.2-4.1-9.2-9.2c0-5.1,4.1-9.2,9.2-9.2c5.1,0,9.2,4.1,9.2,9.2
						C83.6,79.9,79.5,84,74.4,84z M74.4,69.4c-3,0-5.5,2.4-5.5,5.5c0,3,2.5,5.5,5.5,5.5c3,0,5.5-2.4,5.5-5.5
						C79.8,71.8,77.4,69.4,74.4,69.4z"/>
				</g>
			</g>
		</g>
	</g>
	<polygon fill="#535353" points="97.4,66.8 93.2,66.8 93.2,56.5 82.9,56.5 82.9,52.4 97.4,52.4 	"/>
	<polygon fill="#535353" points="66,98.1 51.6,98.1 51.6,83.7 55.7,83.7 55.7,94 66,94 	"/>
	<polygon fill="#535353" points="97.4,98.1 82.9,98.1 82.9,94 93.2,94 93.2,83.7 97.4,83.7 	"/>
	<polygon fill="#535353" points="55.7,66.8 51.6,66.8 51.6,52.4 66,52.4 66,56.5 55.7,56.5 	"/>
</g>
</svg>
